<svg width="62" height="63" viewBox="0 0 62 63" fill="none" xmlns="http://www.w3.org/2000/svg">
<path d="M1 10.9234C1 6.24008 4.59198 2.32959 9.26283 1.98743C25.2166 0.81876 36.7842 0.575206 52.7379 1.87009C57.4098 2.24928 60.9199 6.24522 60.833 10.9317C60.5469 26.3502 60.5004 37.6733 60.7845 52.8308C60.8833 58.1034 56.4744 62.3506 51.2063 62.1131C36.423 61.4469 25.2886 61.5727 10.4483 62.1999C5.30892 62.4171 1 58.327 1 53.183V10.9234Z" fill="url(#paint0_linear_2815_55)"/>
<path d="M1 10.9234C1 6.24008 4.59198 2.32959 9.26283 1.98743C25.2166 0.81876 36.7842 0.575206 52.7379 1.87009C57.4098 2.24928 60.9199 6.24522 60.833 10.9317C60.5469 26.3502 60.5004 37.6733 60.7845 52.8308C60.8833 58.1034 56.4744 62.3506 51.2063 62.1131C36.423 61.4469 25.2886 61.5727 10.4483 62.1999C5.30892 62.4171 1 58.327 1 53.183V10.9234Z" stroke="url(#paint1_linear_2815_55)"/>
<path d="M1 10.9234C1 6.24008 4.59198 2.32959 9.26283 1.98743C25.2166 0.81876 36.7842 0.575206 52.7379 1.87009C57.4098 2.24928 60.9199 6.24522 60.833 10.9317C60.5469 26.3502 60.5004 37.6733 60.7845 52.8308C60.8833 58.1034 56.4744 62.3506 51.2063 62.1131C36.423 61.4469 25.2886 61.5727 10.4483 62.1999C5.30892 62.4171 1 58.327 1 53.183V10.9234Z" stroke="url(#paint2_linear_2815_55)" stroke-opacity="0.2"/>
<defs>
<linearGradient id="paint0_linear_2815_55" x1="31" y1="2.63611" x2="31" y2="62.6361" gradientUnits="userSpaceOnUse">
<stop stop-color="#36ADCB"/>
<stop offset="1" stop-color="#055D70"/>
</linearGradient>
<linearGradient id="paint1_linear_2815_55" x1="58.5" y1="4.13611" x2="3.50001" y2="58.6361" gradientUnits="userSpaceOnUse">
<stop stop-color="#579195"/>
<stop offset="0.485" stop-color="#29303F"/>
<stop offset="1" stop-color="#578E91"/>
</linearGradient>
<linearGradient id="paint2_linear_2815_55" x1="1" y1="17.6361" x2="62.5" y2="14.1361" gradientUnits="userSpaceOnUse">
<stop stop-opacity="0"/>
<stop offset="1"/>
</linearGradient>
</defs>
</svg>
