<svg width="60" height="60" viewBox="0 0 60 60" fill="none" xmlns="http://www.w3.org/2000/svg">
<path d="M28.3273 5.14268C29.199 3.43425 31.6403 3.43425 32.5119 5.14268L38.6192 17.1111C38.9605 17.78 39.6009 18.2454 40.3426 18.3633L53.6125 20.4731C55.5066 20.7743 56.261 23.0958 54.9055 24.453L45.4103 33.9598C44.8795 34.491 44.6349 35.244 44.7519 35.9857L46.8459 49.2581C47.1447 51.1528 45.1698 52.5875 43.4605 51.7179L31.4847 45.6249C30.8155 45.2843 30.0237 45.2843 29.3545 45.6249L17.3787 51.7179C15.6693 52.5875 13.6944 51.1528 13.9933 49.2581L16.0873 35.9857C16.2043 35.244 15.9597 34.491 15.429 33.9598L5.93358 24.453C4.57816 23.0958 5.3325 20.7743 7.22672 20.4731L20.4966 18.3633C21.2382 18.2454 21.8787 17.78 22.2201 17.1111L28.3273 5.14268Z" fill="#C22A20"/>
<path d="M28.3273 5.14268C29.199 3.43425 31.6403 3.43425 32.5119 5.14268L38.6192 17.1111C38.9605 17.78 39.6009 18.2454 40.3426 18.3633L53.6125 20.4731C55.5066 20.7743 56.261 23.0958 54.9055 24.453L45.4103 33.9598C44.8795 34.491 44.6349 35.244 44.7519 35.9857L46.8459 49.2581C47.1447 51.1528 45.1698 52.5875 43.4605 51.7179L31.4847 45.6249C30.8155 45.2843 30.0237 45.2843 29.3545 45.6249L17.3787 51.7179C15.6693 52.5875 13.6944 51.1528 13.9933 49.2581L16.0873 35.9857C16.2043 35.244 15.9597 34.491 15.429 33.9598L5.93358 24.453C4.57816 23.0958 5.3325 20.7743 7.22672 20.4731L20.4966 18.3633C21.2382 18.2454 21.8787 17.78 22.2201 17.1111L28.3273 5.14268Z" fill="url(#paint0_linear_2815_2)"/>
<path d="M28.3278 5.14174C29.1994 3.4333 31.6407 3.4333 32.5123 5.14174L38.6196 17.1101C38.961 17.7791 39.6016 18.2444 40.343 18.3623L53.613 20.4722C55.5071 20.7733 56.2615 23.0949 54.9062 24.4521L45.4107 33.9588C44.88 34.4901 44.6353 35.2431 44.7523 35.9848L46.8463 49.2572C47.1454 51.1518 45.1705 52.5865 43.461 51.717L31.4852 45.624C30.816 45.2834 30.0242 45.2834 29.355 45.624L17.3792 51.717C15.6698 52.5865 13.6948 51.1518 13.9938 49.2572L16.0878 35.9848C16.2048 35.2431 15.9602 34.4901 15.4295 33.9588L5.93407 24.4521C4.57865 23.0949 5.33299 20.7733 7.22721 20.4722L20.4971 18.3623C21.2387 18.2444 21.8792 17.7791 22.2206 17.1101L28.3278 5.14174Z" fill="url(#paint1_linear_2815_2)"/>
<path d="M28.3278 5.14174C29.1994 3.4333 31.6407 3.4333 32.5123 5.14174L38.6196 17.1101C38.961 17.7791 39.6016 18.2444 40.343 18.3623L53.613 20.4722C55.5071 20.7733 56.2615 23.0949 54.9062 24.4521L45.4107 33.9588C44.88 34.4901 44.6353 35.2431 44.7523 35.9848L46.8463 49.2572C47.1454 51.1518 45.1705 52.5865 43.461 51.717L31.4852 45.624C30.816 45.2834 30.0242 45.2834 29.355 45.624L17.3792 51.717C15.6698 52.5865 13.6948 51.1518 13.9938 49.2572L16.0878 35.9848C16.2048 35.2431 15.9602 34.4901 15.4295 33.9588L5.93407 24.4521C4.57865 23.0949 5.33299 20.7733 7.22721 20.4722L20.4971 18.3623C21.2387 18.2444 21.8792 17.7791 22.2206 17.1101L28.3278 5.14174Z" fill="url(#paint2_radial_2815_2)"/>
<path fill-rule="evenodd" clip-rule="evenodd" d="M37.9223 17.466L31.815 5.49763C31.2339 4.35867 29.6063 4.35867 29.0252 5.49763L22.918 17.466C22.4629 18.3579 21.6088 18.9784 20.62 19.1356L7.35016 21.2455C6.08735 21.4463 5.58446 22.994 6.48806 23.8987L15.9835 33.4055C16.6911 34.1139 17.0173 35.1178 16.8612 36.1068L14.7672 49.3793C14.5679 50.6423 15.8845 51.5988 17.0242 51.0189L28.9998 44.9261C29.8922 44.472 30.948 44.472 31.8403 44.9261L43.8159 51.0189C44.9556 51.5988 46.2722 50.6423 46.073 49.3793L43.979 36.1068C43.8228 35.1178 44.1491 34.1139 44.8566 33.4055L54.3521 23.8987C55.2558 22.994 54.7527 21.4463 53.49 21.2455L40.22 19.1356C39.2314 18.9784 38.3773 18.3579 37.9223 17.466ZM32.5123 5.14174C31.6407 3.4333 29.1994 3.4333 28.3278 5.14174L22.2206 17.1101C21.8792 17.7791 21.2387 18.2444 20.4971 18.3623L7.22721 20.4722C5.33299 20.7733 4.57865 23.0949 5.93407 24.4521L15.4295 33.9588C15.9602 34.4901 16.2048 35.2431 16.0878 35.9848L13.9938 49.2572C13.6948 51.1518 15.6698 52.5865 17.3792 51.717L29.355 45.624C30.0242 45.2834 30.816 45.2834 31.4852 45.624L43.461 51.717C45.1705 52.5865 47.1454 51.1518 46.8463 49.2572L44.7523 35.9848C44.6353 35.2431 44.88 34.4901 45.4107 33.9588L54.9062 24.4521C56.2615 23.0949 55.5071 20.7733 53.613 20.4722L40.343 18.3623C39.6016 18.2444 38.961 17.7791 38.6196 17.1101L32.5123 5.14174Z" fill="url(#paint3_linear_2815_2)"/>
<path d="M29.4024 16.8912C29.8547 16.1094 30.9834 16.1094 31.4357 16.8912L35.0127 23.0734C35.1791 23.3608 35.4592 23.5646 35.7839 23.6338L42.7688 25.1252C43.6522 25.3138 44.0009 26.3871 43.3972 27.0589L38.6228 32.3712C38.4008 32.6181 38.294 32.9476 38.3284 33.2779L39.0684 40.3819C39.1619 41.2802 38.249 41.9435 37.4235 41.577L30.896 38.6779C30.5923 38.5431 30.2459 38.5431 29.9424 38.6779L23.4149 41.577C22.5894 41.9435 21.6764 41.2802 21.77 40.3819L22.51 33.2779C22.5444 32.9476 22.4374 32.6181 22.2154 32.3712L17.4411 27.0589C16.8374 26.3871 17.1861 25.3138 18.0694 25.1252L25.0543 23.6338C25.3792 23.5646 25.6594 23.3608 25.8257 23.0734L29.4024 16.8912Z" fill="url(#paint4_linear_2815_2)"/>
<path d="M45.3302 26.0945C31.16 39.4851 18.5043 33.5624 13.9477 28.9271C7.01663 18.6268 22.2266 26.8671 35.7036 23.262C46.4854 20.3778 46.6137 23.9485 45.3302 26.0945Z" fill="url(#paint5_linear_2815_2)"/>
<path fill-rule="evenodd" clip-rule="evenodd" d="M28.8137 7.80718C29.1031 7.95361 29.2189 8.30691 29.0724 8.5963L27.412 11.878C27.2657 12.1674 26.9124 12.2833 26.623 12.1369C26.3336 11.9904 26.2178 11.6371 26.3641 11.3477L28.0245 8.06606C28.171 7.77667 28.5243 7.66076 28.8137 7.80718Z" fill="#F9BE76"/>
<path d="M8.49545 22.5736C8.81978 22.5736 9.0827 22.3107 9.0827 21.9864C9.0827 21.662 8.81978 21.3991 8.49545 21.3991C8.17112 21.3991 7.9082 21.662 7.9082 21.9864C7.9082 22.3107 8.17112 22.5736 8.49545 22.5736Z" fill="#F9BE76"/>
<path d="M26.1126 13.5693C26.437 13.5693 26.6999 13.3064 26.6999 12.9821C26.6999 12.6578 26.437 12.3948 26.1126 12.3948C25.7883 12.3948 25.5254 12.6578 25.5254 12.9821C25.5254 13.3064 25.7883 13.5693 26.1126 13.5693Z" fill="#F9BE76"/>
<path d="M24.8107 19.0447C20.3562 25.3544 21.9481 28.7896 23.3008 29.7187C27.4092 31.5729 34.8953 20.6315 35.4019 17.7361C35.9084 14.8407 30.3787 11.1575 24.8107 19.0447Z" fill="url(#paint6_linear_2815_2)" fill-opacity="0.6"/>
<defs>
<linearGradient id="paint0_linear_2815_2" x1="30.4195" y1="1.04228" x2="43.5348" y2="51.7415" gradientUnits="userSpaceOnUse">
<stop stop-color="#FBA416" stop-opacity="0"/>
<stop offset="1" stop-color="#FDBB4E" stop-opacity="0.63"/>
</linearGradient>
<linearGradient id="paint1_linear_2815_2" x1="30.42" y1="1.04136" x2="43.5353" y2="51.7405" gradientUnits="userSpaceOnUse">
<stop stop-color="#FDBB4E" stop-opacity="0"/>
<stop offset="1" stop-color="#FDBB4E" stop-opacity="0.63"/>
</linearGradient>
<radialGradient id="paint2_radial_2815_2" cx="0" cy="0" r="1" gradientUnits="userSpaceOnUse" gradientTransform="translate(23.5689 22.7696) rotate(52.6712) scale(34.218 34.218)">
<stop offset="0.738765" stop-color="#9CB6DD" stop-opacity="0"/>
<stop offset="0.89825" stop-color="#C6F1FF" stop-opacity="0.37"/>
<stop offset="1" stop-color="#EFFBFF" stop-opacity="0.7"/>
</radialGradient>
<linearGradient id="paint3_linear_2815_2" x1="46.863" y1="40.1912" x2="19.8496" y2="15.7226" gradientUnits="userSpaceOnUse">
<stop stop-color="#FEFFD3" stop-opacity="0.63"/>
<stop offset="0.218803" stop-color="#FAFD4E" stop-opacity="0"/>
<stop offset="0.491108" stop-color="#FDFF8B" stop-opacity="0.56"/>
<stop offset="0.733041" stop-color="#F7F990"/>
<stop offset="1" stop-color="#FEFFB7" stop-opacity="0"/>
</linearGradient>
<linearGradient id="paint4_linear_2815_2" x1="30.4192" y1="15.1341" x2="30.0276" y2="41.1688" gradientUnits="userSpaceOnUse">
<stop stop-color="#FEFFB0"/>
<stop offset="0.277442" stop-color="white" stop-opacity="0.51"/>
<stop offset="1" stop-color="#FAFD4E" stop-opacity="0.15"/>
</linearGradient>
<linearGradient id="paint5_linear_2815_2" x1="29.1576" y1="25.0643" x2="28.9638" y2="34.317" gradientUnits="userSpaceOnUse">
<stop stop-color="#FAFD4E" stop-opacity="0"/>
<stop offset="0.731853" stop-color="#FAFD4E" stop-opacity="0.46"/>
</linearGradient>
<linearGradient id="paint6_linear_2815_2" x1="26.5625" y1="19.8887" x2="31.7619" y2="24.7959" gradientUnits="userSpaceOnUse">
<stop offset="0.223958" stop-color="#FAFD4E" stop-opacity="0.35"/>
<stop offset="1" stop-color="#FAFD4E" stop-opacity="0"/>
</linearGradient>
</defs>
</svg>
